<mxfile host="app.diagrams.net" modified="2023-01-18T12:04:09.001Z" agent="5.0 (Windows NT 10.0; Win64; x64) AppleWebKit/537.36 (KHTML, like Gecko) Chrome/109.0.0.0 Safari/537.36 Edg/109.0.1518.55" etag="PWE5PMSKFSTqI4Ojp76G" version="20.8.5" type="github">
  <diagram id="07fea595-8f29-1299-0266-81d95cde20df" name="Page-1">
    <mxGraphModel dx="4558" dy="1407" grid="1" gridSize="10" guides="1" tooltips="1" connect="1" arrows="1" fold="1" page="1" pageScale="1" pageWidth="1169" pageHeight="827" background="none" math="0" shadow="0">
      <root>
        <mxCell id="0" />
        <mxCell id="1" parent="0" />
        <mxCell id="698" value="" style="rounded=0;whiteSpace=wrap;html=1;shadow=0;labelBackgroundColor=none;strokeColor=none;strokeWidth=3;fillColor=#e8edf0;fontSize=60;fontColor=#2F5B7C;align=left;" parent="1" vertex="1">
          <mxGeometry x="-2290" y="32" width="2250" height="1598" as="geometry" />
        </mxCell>
        <mxCell id="699" value="&lt;div style=&quot;font-size: 26px&quot;&gt;&lt;font style=&quot;font-size: 26px&quot;&gt;客户关系&lt;/font&gt;&lt;/div&gt;&lt;div style=&quot;&quot;&gt;&lt;font style=&quot;font-size: 20px;&quot;&gt;Customer Relationships&lt;/font&gt;&lt;/div&gt;&lt;div&gt;&lt;br&gt;&lt;/div&gt;&lt;div&gt;What type of relationship does each of our Customer&lt;/div&gt;&lt;div&gt;Segments expect us to establish and maintain with them?&lt;/div&gt;&lt;div&gt;Which ones have we established?&lt;/div&gt;&lt;div&gt;How are they integrated with the rest of our business model?&lt;/div&gt;&lt;div&gt;How costly are they?&lt;/div&gt;&lt;div&gt;&lt;br&gt;&lt;/div&gt;" style="rounded=0;whiteSpace=wrap;html=1;shadow=0;labelBackgroundColor=none;strokeColor=#e8edf0;strokeWidth=5;fillColor=#ffffff;fontSize=12;fontColor=#2F5B7C;align=left;verticalAlign=top;spacing=30;" parent="1" vertex="1">
          <mxGeometry x="-950" y="220" width="420" height="450" as="geometry" />
        </mxCell>
        <mxCell id="700" value="&lt;font&gt;&lt;font style=&quot;&quot;&gt;&lt;span style=&quot;font-size: 26px;&quot;&gt;重要伙伴&lt;/span&gt;&lt;br&gt;&lt;font style=&quot;font-size: 20px;&quot;&gt;Key Partners&lt;/font&gt;&lt;/font&gt;&lt;br&gt;&lt;/font&gt;&lt;font style=&quot;font-size: 12px&quot;&gt;&lt;br style=&quot;font-size: 12px&quot;&gt;&lt;font style=&quot;font-size: 12px&quot;&gt;Who are our Key Partners?&lt;br style=&quot;font-size: 12px&quot;&gt;Who are our key suppliers?&lt;br style=&quot;font-size: 12px&quot;&gt;Which Key Resources are we acuariring from partners?&lt;br style=&quot;font-size: 12px&quot;&gt;&lt;/font&gt;&lt;br style=&quot;font-size: 12px&quot;&gt;&lt;/font&gt;&lt;div style=&quot;font-size: 10px&quot;&gt;&lt;font style=&quot;font-size: 10px&quot;&gt;&lt;b&gt;Motivations for partnerships&lt;/b&gt;&lt;/font&gt;&lt;/div&gt;&lt;div style=&quot;font-size: 10px&quot;&gt;&lt;font style=&quot;font-size: 10px&quot;&gt;Optimization and economy&lt;/font&gt;&lt;/div&gt;&lt;div style=&quot;font-size: 10px&quot;&gt;&lt;font style=&quot;font-size: 10px&quot;&gt;Reduction of risk and uncertainty&lt;/font&gt;&lt;/div&gt;&lt;div style=&quot;font-size: 10px&quot;&gt;&lt;font style=&quot;font-size: 10px&quot;&gt;Acquisition of particular resources and activities&lt;/font&gt;&lt;/div&gt;&lt;div style=&quot;font-size: 12px&quot;&gt;&lt;br style=&quot;font-size: 12px&quot;&gt;&lt;/div&gt;" style="rounded=0;whiteSpace=wrap;html=1;shadow=0;labelBackgroundColor=none;strokeColor=#e8edf0;strokeWidth=5;fillColor=#ffffff;fontSize=12;fontColor=#2F5B7C;align=left;verticalAlign=top;spacing=30;" parent="1" vertex="1">
          <mxGeometry x="-2210" y="220" width="420" height="900" as="geometry" />
        </mxCell>
        <mxCell id="701" value="&lt;font&gt;&lt;font style=&quot;&quot;&gt;&lt;span style=&quot;font-size: 26px;&quot;&gt;关键业务&lt;/span&gt;&lt;br&gt;&lt;font style=&quot;font-size: 20px;&quot;&gt;Key Activities&lt;/font&gt;&lt;/font&gt;&lt;br style=&quot;font-size: 12px&quot;&gt;&lt;/font&gt;&lt;font&gt;&lt;br style=&quot;font-size: 12px&quot;&gt;&lt;div&gt;What Key Activities do our Value Propositions require?&lt;/div&gt;&lt;div&gt;Our Distribution Channels?&lt;/div&gt;&lt;div&gt;Customer Relationships?&lt;/div&gt;&lt;div&gt;Revenue streams?&lt;/div&gt;&lt;div&gt;&lt;br&gt;&lt;/div&gt;&lt;/font&gt;&lt;div&gt;&lt;br&gt;&lt;/div&gt;" style="rounded=0;whiteSpace=wrap;html=1;shadow=0;labelBackgroundColor=none;strokeColor=#e8edf0;strokeWidth=5;fillColor=#ffffff;fontSize=12;fontColor=#2F5B7C;align=left;verticalAlign=top;spacing=30;" parent="1" vertex="1">
          <mxGeometry x="-1790" y="220" width="420" height="450" as="geometry" />
        </mxCell>
        <mxCell id="702" value="&lt;div&gt;&lt;font style=&quot;font-size: 26px&quot;&gt;核心资源&lt;/font&gt;&lt;/div&gt;&lt;div style=&quot;line-height: 120%;&quot;&gt;&lt;font style=&quot;font-size: 20px;&quot;&gt;Key Resources&lt;/font&gt;&lt;/div&gt;&lt;div&gt;&lt;br&gt;&lt;/div&gt;&lt;div&gt;What Key Resources do our Value Propositions require?&lt;/div&gt;&lt;div&gt;Our Distribution Channels? Customer Relationships?&lt;/div&gt;&lt;div&gt;Revenue Streams?&lt;/div&gt;&lt;div&gt;&lt;br&gt;&lt;/div&gt;&lt;div style=&quot;font-size: 10px&quot;&gt;&lt;br&gt;&lt;/div&gt;" style="rounded=0;whiteSpace=wrap;html=1;shadow=0;labelBackgroundColor=none;strokeColor=#e8edf0;strokeWidth=5;fillColor=#ffffff;fontSize=12;fontColor=#2F5B7C;align=left;verticalAlign=top;spacing=30;" parent="1" vertex="1">
          <mxGeometry x="-1790" y="670" width="420" height="450" as="geometry" />
        </mxCell>
        <mxCell id="703" value="&lt;div style=&quot;font-size: 26px&quot;&gt;&lt;font style=&quot;font-size: 26px&quot;&gt;价值主张&lt;/font&gt;&lt;/div&gt;&lt;div style=&quot;&quot;&gt;&lt;font style=&quot;font-size: 20px;&quot;&gt;Value Propositions&lt;/font&gt;&lt;/div&gt;&lt;div&gt;&lt;br&gt;&lt;/div&gt;&lt;div&gt;What value do we deliver to the customer?&lt;/div&gt;&lt;div&gt;Which one of our customer’s problems are we helping to solve?&lt;/div&gt;&lt;div&gt;What bundles of products and services are we offering to each Customer Segment?&lt;/div&gt;&lt;div&gt;Which customer needs are we satisfying?&lt;/div&gt;&lt;div&gt;&lt;br&gt;&lt;/div&gt;&lt;div style=&quot;font-size: 10px&quot;&gt;&lt;br&gt;&lt;/div&gt;" style="rounded=0;whiteSpace=wrap;html=1;shadow=0;labelBackgroundColor=none;strokeColor=#e8edf0;strokeWidth=5;fillColor=#ffffff;fontSize=12;fontColor=#2F5B7C;align=left;verticalAlign=top;spacing=30;" parent="1" vertex="1">
          <mxGeometry x="-1370" y="220" width="420" height="900" as="geometry" />
        </mxCell>
        <mxCell id="704" value="&lt;div&gt;&lt;font style=&quot;font-size: 26px;&quot;&gt;客户细分&lt;/font&gt;&lt;/div&gt;&lt;div&gt;&lt;font style=&quot;font-size: 20px;&quot;&gt;Customer Segments&lt;/font&gt;&lt;/div&gt;&lt;div&gt;For whom are we creating value?&lt;/div&gt;&lt;div&gt;Who are our most important customers?&lt;/div&gt;&lt;div&gt;&lt;p style=&quot;font-size: 13px; line-height: 140%;&quot; class=&quot;MsoNormal&quot;&gt;&lt;/p&gt;&lt;/div&gt;&lt;blockquote style=&quot;margin: 0px 0px 0px 40px; border: none; padding: 0px; line-height: 150%;&quot;&gt;&lt;div style=&quot;line-height: 150%;&quot;&gt;&lt;div style=&quot;line-height: 150%;&quot;&gt;&lt;a style=&quot;font-family: 得意黑; font-size: 16px;&quot; name=&quot;_Hlk124935824&quot;&gt;&lt;b style=&quot;&quot;&gt;&lt;font style=&quot;font-size: 16px;&quot;&gt;目&lt;/font&gt;&lt;font style=&quot;font-size: 16px;&quot;&gt;标人&lt;/font&gt;&lt;font style=&quot;font-size: 16px;&quot;&gt;群&lt;/font&gt;&lt;/b&gt;&lt;span style=&quot;font-size: 13px;&quot;&gt;：初中生、高中生、&lt;/span&gt;&lt;b style=&quot;font-size: 13px;&quot;&gt;大学生&lt;/b&gt;&lt;span style=&quot;font-size: 13px;&quot;&gt;和&lt;/span&gt;&lt;b style=&quot;font-size: 13px;&quot;&gt;白领&lt;/b&gt;&lt;span style=&quot;font-size: 13px;&quot;&gt;等；&lt;/span&gt;&lt;/a&gt;&lt;/div&gt;&lt;/div&gt;&lt;div style=&quot;line-height: 150%;&quot;&gt;&lt;font style=&quot;&quot; face=&quot;得意黑&quot;&gt;&lt;div style=&quot;line-height: 150%;&quot;&gt;&lt;span style=&quot;background: white;&quot;&gt;&lt;font style=&quot;font-size: 16px;&quot;&gt;&lt;b&gt;年龄划分&lt;/b&gt;&lt;/font&gt;&lt;span style=&quot;font-size: 13px;&quot;&gt;：年龄主要在&lt;/span&gt;&lt;/span&gt;&lt;span style=&quot;font-size: 13px; background: white;&quot; lang=&quot;EN-US&quot;&gt;15-35&lt;/span&gt;&lt;span style=&quot;font-size: 13px; background: white;&quot;&gt;岁之间，尤其是&lt;/span&gt;&lt;span style=&quot;font-size: 13px; background: white;&quot; lang=&quot;EN-US&quot;&gt;20+&lt;/span&gt;&lt;span style=&quot;font-size: 13px; background: white;&quot;&gt;以上的人群；&lt;/span&gt;&lt;/div&gt;&lt;/font&gt;&lt;/div&gt;&lt;div style=&quot;line-height: 150%;&quot;&gt;&lt;font style=&quot;&quot; face=&quot;得意黑&quot;&gt;&lt;span style=&quot;background: white;&quot;&gt;&lt;div style=&quot;line-height: 150%;&quot;&gt;&lt;b style=&quot;&quot;&gt;&lt;font style=&quot;font-size: 16px;&quot;&gt;学习需求&lt;/font&gt;&lt;/b&gt;&lt;span style=&quot;font-size: 13px;&quot;&gt;：复习、考研、考公、考证、留学托福雅思等；&lt;/span&gt;&lt;/div&gt;&lt;/span&gt;&lt;/font&gt;&lt;/div&gt;&lt;div style=&quot;font-size: 13px; line-height: 150%;&quot;&gt;&lt;font style=&quot;font-size: 13px;&quot; face=&quot;得意黑&quot;&gt;&lt;span style=&quot;background: white;&quot;&gt;&lt;div style=&quot;line-height: 150%;&quot;&gt;群体优势：考研、出国留学＞公务员、事业单位、银行职员＞职业资格证书人群＞高三初三学习＞中小学生学习＞临时学习＞临时办公；&lt;/div&gt;&lt;/span&gt;&lt;/font&gt;&lt;/div&gt;&lt;div style=&quot;line-height: 150%;&quot;&gt;&lt;font style=&quot;&quot; face=&quot;得意黑&quot;&gt;&lt;span style=&quot;background: white;&quot;&gt;&lt;div style=&quot;line-height: 150%;&quot;&gt;&lt;font style=&quot;font-size: 16px;&quot;&gt;&lt;b&gt;用户偏好&lt;/b&gt;&lt;/font&gt;&lt;span style=&quot;font-size: 13px;&quot;&gt;：学校附近＞商圈附近＞写字楼＞居民楼&lt;/span&gt;&lt;/div&gt;&lt;/span&gt;&lt;/font&gt;&lt;/div&gt;&lt;/blockquote&gt;&lt;div&gt;&lt;span lang=&quot;EN-US&quot;&gt;&lt;/span&gt;&lt;p&gt;&lt;/p&gt;&lt;/div&gt;" style="rounded=0;whiteSpace=wrap;html=1;shadow=0;labelBackgroundColor=none;strokeColor=#e8edf0;strokeWidth=5;fillColor=#ffffff;fontSize=12;fontColor=#2F5B7C;align=left;verticalAlign=top;spacing=30;" parent="1" vertex="1">
          <mxGeometry x="-530" y="220" width="420" height="900" as="geometry" />
        </mxCell>
        <mxCell id="705" value="&lt;div&gt;&lt;font style=&quot;font-size: 26px&quot;&gt;渠道通路&lt;/font&gt;&lt;/div&gt;&lt;div&gt;&lt;font style=&quot;font-size: 20px;&quot;&gt;Channels&lt;/font&gt;&lt;/div&gt;&lt;div&gt;&lt;br&gt;&lt;/div&gt;&lt;div&gt;Through which Channels do our Customer Segments&lt;/div&gt;&lt;div&gt;want to be reached?&lt;/div&gt;&lt;div&gt;How are we reaching them now?&lt;/div&gt;&lt;div&gt;How are our Channels integrated?&lt;/div&gt;&lt;div&gt;Which ones work best?&lt;/div&gt;&lt;div&gt;Which ones are most cost-efficient?&lt;/div&gt;&lt;div&gt;How are we integrating them with customer routines?&lt;/div&gt;&lt;div&gt;&lt;br&gt;&lt;/div&gt;&lt;div style=&quot;font-size: 10px&quot;&gt;&lt;br&gt;&lt;/div&gt;&lt;div style=&quot;font-size: 10px&quot;&gt;&lt;br&gt;&lt;/div&gt;" style="rounded=0;whiteSpace=wrap;html=1;shadow=0;labelBackgroundColor=none;strokeColor=#e8edf0;strokeWidth=5;fillColor=#ffffff;fontSize=12;fontColor=#2F5B7C;align=left;verticalAlign=top;spacing=30;" parent="1" vertex="1">
          <mxGeometry x="-950" y="670" width="420" height="450" as="geometry" />
        </mxCell>
        <mxCell id="706" value="&lt;div style=&quot;font-size: 26px&quot;&gt;&lt;font style=&quot;font-size: 26px&quot;&gt;成本结构&lt;/font&gt;&lt;/div&gt;&lt;div style=&quot;&quot;&gt;&lt;font style=&quot;font-size: 20px;&quot;&gt;Cost Structure&lt;/font&gt;&lt;/div&gt;&lt;div&gt;&lt;br&gt;&lt;/div&gt;&lt;div&gt;What are the most important costs inherent in our business model?&lt;/div&gt;&lt;div&gt;Which Key Resources are most expensive?&lt;/div&gt;&lt;div&gt;Which Key Activities are most expensive?&lt;/div&gt;&lt;div&gt;&lt;br&gt;&lt;/div&gt;" style="rounded=0;whiteSpace=wrap;html=1;shadow=0;labelBackgroundColor=none;strokeColor=#e8edf0;strokeWidth=5;fillColor=#ffffff;fontSize=12;fontColor=#2F5B7C;align=left;verticalAlign=top;spacing=30;" parent="1" vertex="1">
          <mxGeometry x="-2210" y="1120" width="1050" height="330" as="geometry" />
        </mxCell>
        <mxCell id="707" value="&lt;div style=&quot;font-size: 26px&quot;&gt;&lt;font style=&quot;font-size: 26px&quot;&gt;收入来源&lt;/font&gt;&lt;/div&gt;&lt;div style=&quot;&quot;&gt;&lt;font style=&quot;font-size: 20px;&quot;&gt;Revenue Streams&lt;/font&gt;&lt;/div&gt;&lt;div&gt;For what value are our customers really willing to pay?&lt;/div&gt;&lt;div&gt;For what do they currently pay?&lt;/div&gt;&lt;div&gt;How are they currently paying?&lt;/div&gt;&lt;div&gt;How would they prefer to pay?&lt;/div&gt;&lt;div&gt;How much does each Revenue Stream contribute to overall revenues?&lt;/div&gt;" style="rounded=0;whiteSpace=wrap;html=1;shadow=0;labelBackgroundColor=none;strokeColor=#e8edf0;strokeWidth=5;fillColor=#ffffff;fontSize=12;fontColor=#2F5B7C;align=left;verticalAlign=top;spacing=30;" parent="1" vertex="1">
          <mxGeometry x="-1160" y="1120" width="1050" height="330" as="geometry" />
        </mxCell>
        <mxCell id="708" value="商业模式画布——共享自习室" style="text;html=1;resizable=0;points=[];autosize=1;align=left;verticalAlign=top;spacingTop=-4;fontSize=60;fontColor=#2F5B7C;" parent="1" vertex="1">
          <mxGeometry x="-2210" y="110" width="800" height="80" as="geometry" />
        </mxCell>
        <mxCell id="709" value="" style="html=1;verticalLabelPosition=bottom;labelBackgroundColor=#ffffff;verticalAlign=top;shadow=0;dashed=0;strokeWidth=4;shape=mxgraph.ios7.misc.check;strokeColor=#2F5B7C;fillColor=#ffffff;gradientColor=none;fontSize=12;fontColor=#2F5B7C;align=left;" parent="1" vertex="1">
          <mxGeometry x="-1410" y="252" width="20" height="16" as="geometry" />
        </mxCell>
        <mxCell id="710" value="" style="shape=mxgraph.signs.travel.present;html=1;fillColor=#2F5B7C;strokeColor=none;verticalLabelPosition=bottom;verticalAlign=top;align=center;shadow=0;labelBackgroundColor=none;fontSize=12;fontColor=#2F5B7C;" parent="1" vertex="1">
          <mxGeometry x="-1000" y="235" width="31" height="40" as="geometry" />
        </mxCell>
        <mxCell id="711" value="" style="html=1;verticalLabelPosition=bottom;labelBackgroundColor=#ffffff;verticalAlign=top;strokeWidth=3;strokeColor=none;fillColor=#2F5B7C;shadow=0;dashed=0;shape=mxgraph.ios7.icons.heart;fontSize=12;fontColor=#2F5B7C;align=left;" parent="1" vertex="1">
          <mxGeometry x="-594.9999999999997" y="242" width="41" height="36" as="geometry" />
        </mxCell>
        <mxCell id="715" value="" style="shadow=0;dashed=0;html=1;strokeColor=none;labelPosition=center;verticalLabelPosition=bottom;verticalAlign=top;shape=mxgraph.mscae.cloud.data_factory;fillColor=#2F5B7C;labelBackgroundColor=none;fontSize=10;fontColor=#2F5B7C;align=left;" parent="1" vertex="1">
          <mxGeometry x="-1440" y="690" width="50" height="50" as="geometry" />
        </mxCell>
        <mxCell id="716" value="" style="shape=mxgraph.signs.transportation.truck_6;html=1;fillColor=#2F5B7C;strokeColor=none;verticalLabelPosition=bottom;verticalAlign=top;align=center;shadow=0;labelBackgroundColor=none;fontSize=10;fontColor=#2F5B7C;aspect=fixed;" parent="1" vertex="1">
          <mxGeometry x="-590" y="690" width="40" height="50" as="geometry" />
        </mxCell>
        <mxCell id="717" value="" style="shape=image;html=1;verticalAlign=top;verticalLabelPosition=bottom;labelBackgroundColor=#ffffff;imageAspect=0;aspect=fixed;image=https://cdn4.iconfinder.com/data/icons/evil-icons-user-interface/64/price-128.png;shadow=0;strokeColor=#e8edf0;strokeWidth=3;fillColor=#2F5B7C;gradientColor=none;fontSize=10;fontColor=#2F5B7C;align=left;" parent="1" vertex="1">
          <mxGeometry x="-1226" y="1140" width="58" height="58" as="geometry" />
        </mxCell>
        <mxCell id="718" value="" style="dashed=0;html=1;shape=mxgraph.aws3.checklist_cost;fillColor=#2F5B7C;gradientColor=none;shadow=0;labelBackgroundColor=none;strokeColor=none;strokeWidth=3;fontSize=10;fontColor=#2F5B7C;align=left;" parent="1" vertex="1">
          <mxGeometry x="-203.5" y="1131.5" width="67.5" height="75" as="geometry" />
        </mxCell>
        <mxCell id="719" value="" style="shadow=0;dashed=0;html=1;strokeColor=none;fillColor=#2F5B7C;labelPosition=center;verticalLabelPosition=bottom;verticalAlign=top;outlineConnect=0;shape=mxgraph.office.concepts.link;labelBackgroundColor=none;fontSize=10;fontColor=#000000;align=left;" parent="1" vertex="1">
          <mxGeometry x="-1871" y="241" width="61" height="21" as="geometry" />
        </mxCell>
        <mxCell id="720" value="" style="group" parent="1" vertex="1" connectable="0">
          <mxGeometry x="-203.5" y="245" width="69" height="50" as="geometry" />
        </mxCell>
        <mxCell id="721" value="" style="shadow=0;dashed=0;html=1;strokeColor=#FFFFFF;labelPosition=center;verticalLabelPosition=bottom;verticalAlign=top;outlineConnect=0;shape=mxgraph.office.users.user;fillColor=#2F5B7C;labelBackgroundColor=none;fontSize=10;fontColor=#000000;align=left;strokeWidth=2;" parent="720" vertex="1">
          <mxGeometry x="31" y="-5" width="46" height="50" as="geometry" />
        </mxCell>
        <mxCell id="722" value="" style="shadow=0;dashed=0;html=1;strokeColor=#FFFFFF;labelPosition=center;verticalLabelPosition=bottom;verticalAlign=top;outlineConnect=0;shape=mxgraph.office.users.user;fillColor=#2F5B7C;labelBackgroundColor=none;fontSize=10;fontColor=#000000;align=left;strokeWidth=2;" parent="720" vertex="1">
          <mxGeometry width="46" height="50" as="geometry" />
        </mxCell>
        <mxCell id="cZTzQ1dlgNuw5taSdZ2e-723" value="" style="shape=image;html=1;verticalAlign=top;verticalLabelPosition=bottom;labelBackgroundColor=#ffffff;imageAspect=0;aspect=fixed;image=https://cdn0.iconfinder.com/data/icons/phosphor-fill-vol-4/256/student-fill-128.png;fontSize=15;" vertex="1" parent="1">
          <mxGeometry x="-500" y="480" width="38" height="38" as="geometry" />
        </mxCell>
        <mxCell id="cZTzQ1dlgNuw5taSdZ2e-744" style="edgeStyle=orthogonalEdgeStyle;rounded=0;orthogonalLoop=1;jettySize=auto;html=1;entryX=0;entryY=0.5;entryDx=0;entryDy=0;fontSize=15;fontColor=#000000;exitX=0.5;exitY=1;exitDx=0;exitDy=0;" edge="1" parent="1" source="cZTzQ1dlgNuw5taSdZ2e-724" target="cZTzQ1dlgNuw5taSdZ2e-738">
          <mxGeometry relative="1" as="geometry">
            <mxPoint x="-404.969696969697" y="514" as="sourcePoint" />
          </mxGeometry>
        </mxCell>
        <mxCell id="cZTzQ1dlgNuw5taSdZ2e-761" style="edgeStyle=orthogonalEdgeStyle;rounded=0;orthogonalLoop=1;jettySize=auto;html=1;entryX=0;entryY=0.5;entryDx=0;entryDy=0;fontFamily=得意黑;fontSize=26;fontColor=#2F5B7C;" edge="1" parent="1" source="cZTzQ1dlgNuw5taSdZ2e-724" target="cZTzQ1dlgNuw5taSdZ2e-732">
          <mxGeometry relative="1" as="geometry" />
        </mxCell>
        <mxCell id="cZTzQ1dlgNuw5taSdZ2e-762" style="edgeStyle=orthogonalEdgeStyle;rounded=0;orthogonalLoop=1;jettySize=auto;html=1;entryX=0;entryY=0.5;entryDx=0;entryDy=0;fontFamily=得意黑;fontSize=26;fontColor=#2F5B7C;" edge="1" parent="1" source="cZTzQ1dlgNuw5taSdZ2e-724" target="cZTzQ1dlgNuw5taSdZ2e-733">
          <mxGeometry relative="1" as="geometry" />
        </mxCell>
        <mxCell id="cZTzQ1dlgNuw5taSdZ2e-763" style="edgeStyle=orthogonalEdgeStyle;rounded=0;orthogonalLoop=1;jettySize=auto;html=1;entryX=0;entryY=0.5;entryDx=0;entryDy=0;fontFamily=得意黑;fontSize=26;fontColor=#2F5B7C;" edge="1" parent="1" source="cZTzQ1dlgNuw5taSdZ2e-724" target="cZTzQ1dlgNuw5taSdZ2e-735">
          <mxGeometry relative="1" as="geometry" />
        </mxCell>
        <mxCell id="cZTzQ1dlgNuw5taSdZ2e-764" style="edgeStyle=orthogonalEdgeStyle;rounded=0;orthogonalLoop=1;jettySize=auto;html=1;entryX=0;entryY=0.5;entryDx=0;entryDy=0;fontFamily=得意黑;fontSize=26;fontColor=#2F5B7C;" edge="1" parent="1" source="cZTzQ1dlgNuw5taSdZ2e-724" target="cZTzQ1dlgNuw5taSdZ2e-736">
          <mxGeometry relative="1" as="geometry" />
        </mxCell>
        <mxCell id="cZTzQ1dlgNuw5taSdZ2e-765" style="edgeStyle=orthogonalEdgeStyle;rounded=0;orthogonalLoop=1;jettySize=auto;html=1;entryX=0;entryY=0.5;entryDx=0;entryDy=0;fontFamily=得意黑;fontSize=26;fontColor=#2F5B7C;" edge="1" parent="1" source="cZTzQ1dlgNuw5taSdZ2e-724" target="cZTzQ1dlgNuw5taSdZ2e-737">
          <mxGeometry relative="1" as="geometry" />
        </mxCell>
        <mxCell id="cZTzQ1dlgNuw5taSdZ2e-724" value="&lt;font style=&quot;font-size: 25px;&quot;&gt;大学生&lt;/font&gt;" style="text;strokeColor=none;align=center;fillColor=none;html=1;verticalAlign=middle;whiteSpace=wrap;rounded=0;fontFamily=得意黑;fontColor=#2f5b7c;fontSize=25;" vertex="1" parent="1">
          <mxGeometry x="-490" y="480" width="150" height="30" as="geometry" />
        </mxCell>
        <mxCell id="cZTzQ1dlgNuw5taSdZ2e-732" value="宿舍学习氛围差" style="rounded=1;whiteSpace=wrap;html=1;fontSize=17;fontColor=#2f5b7c;fontFamily=得意黑;" vertex="1" parent="1">
          <mxGeometry x="-370" y="523" width="190" height="30" as="geometry" />
        </mxCell>
        <mxCell id="cZTzQ1dlgNuw5taSdZ2e-733" value="容易受到外界干扰" style="rounded=1;whiteSpace=wrap;html=1;fontSize=17;fontColor=#2f5b7c;fontFamily=得意黑;" vertex="1" parent="1">
          <mxGeometry x="-370" y="563" width="190" height="30" as="geometry" />
        </mxCell>
        <mxCell id="cZTzQ1dlgNuw5taSdZ2e-735" value="图书馆高峰位置少" style="rounded=1;whiteSpace=wrap;html=1;fontSize=17;fontColor=#2f5b7c;fontFamily=得意黑;" vertex="1" parent="1">
          <mxGeometry x="-370" y="603" width="190" height="30" as="geometry" />
        </mxCell>
        <mxCell id="cZTzQ1dlgNuw5taSdZ2e-736" value="容易受到外界干扰" style="rounded=1;whiteSpace=wrap;html=1;fontSize=17;fontColor=#2f5b7c;fontFamily=得意黑;" vertex="1" parent="1">
          <mxGeometry x="-370" y="643" width="190" height="30" as="geometry" />
        </mxCell>
        <mxCell id="cZTzQ1dlgNuw5taSdZ2e-737" value="学习位置不稳定" style="rounded=1;whiteSpace=wrap;html=1;fontSize=17;fontColor=#2f5b7c;fontFamily=得意黑;" vertex="1" parent="1">
          <mxGeometry x="-370" y="683" width="190" height="30" as="geometry" />
        </mxCell>
        <mxCell id="cZTzQ1dlgNuw5taSdZ2e-738" value="有团队合作研讨需求" style="rounded=1;whiteSpace=wrap;html=1;fontSize=17;fontColor=#2f5b7c;fontFamily=得意黑;" vertex="1" parent="1">
          <mxGeometry x="-370" y="723" width="190" height="30" as="geometry" />
        </mxCell>
        <mxCell id="cZTzQ1dlgNuw5taSdZ2e-745" value="" style="dashed=0;aspect=fixed;verticalLabelPosition=bottom;verticalAlign=top;align=center;shape=mxgraph.gmdl.star;strokeColor=none;fillColor=#737373;shadow=0;sketch=0;fontSize=15;fontColor=#D5E8D4;" vertex="1" parent="1">
          <mxGeometry x="-380" y="485" width="20" height="20" as="geometry" />
        </mxCell>
        <mxCell id="cZTzQ1dlgNuw5taSdZ2e-747" value="" style="shape=mxgraph.signs.people.pedestrian;html=1;pointerEvents=1;fillColor=#000000;strokeColor=none;verticalLabelPosition=bottom;verticalAlign=top;align=center;fontSize=15;fontColor=#D5E8D4;" vertex="1" parent="1">
          <mxGeometry x="-497.15999999999997" y="760" width="32.32" height="40" as="geometry" />
        </mxCell>
        <mxCell id="cZTzQ1dlgNuw5taSdZ2e-757" style="edgeStyle=orthogonalEdgeStyle;rounded=0;orthogonalLoop=1;jettySize=auto;html=1;entryX=0;entryY=0.5;entryDx=0;entryDy=0;fontFamily=得意黑;fontSize=26;fontColor=#D5E8D4;" edge="1" parent="1" source="cZTzQ1dlgNuw5taSdZ2e-750" target="cZTzQ1dlgNuw5taSdZ2e-751">
          <mxGeometry relative="1" as="geometry" />
        </mxCell>
        <mxCell id="cZTzQ1dlgNuw5taSdZ2e-758" style="edgeStyle=orthogonalEdgeStyle;rounded=0;orthogonalLoop=1;jettySize=auto;html=1;entryX=0;entryY=0.5;entryDx=0;entryDy=0;fontFamily=得意黑;fontSize=26;fontColor=#D5E8D4;" edge="1" parent="1" source="cZTzQ1dlgNuw5taSdZ2e-750" target="cZTzQ1dlgNuw5taSdZ2e-753">
          <mxGeometry relative="1" as="geometry" />
        </mxCell>
        <mxCell id="cZTzQ1dlgNuw5taSdZ2e-759" style="edgeStyle=orthogonalEdgeStyle;rounded=0;orthogonalLoop=1;jettySize=auto;html=1;entryX=0;entryY=0.5;entryDx=0;entryDy=0;fontFamily=得意黑;fontSize=26;fontColor=#D5E8D4;" edge="1" parent="1" source="cZTzQ1dlgNuw5taSdZ2e-750" target="cZTzQ1dlgNuw5taSdZ2e-754">
          <mxGeometry relative="1" as="geometry" />
        </mxCell>
        <mxCell id="cZTzQ1dlgNuw5taSdZ2e-760" style="edgeStyle=orthogonalEdgeStyle;rounded=0;orthogonalLoop=1;jettySize=auto;html=1;entryX=0;entryY=0.5;entryDx=0;entryDy=0;fontFamily=得意黑;fontSize=26;fontColor=#D5E8D4;" edge="1" parent="1" source="cZTzQ1dlgNuw5taSdZ2e-750" target="cZTzQ1dlgNuw5taSdZ2e-756">
          <mxGeometry relative="1" as="geometry" />
        </mxCell>
        <mxCell id="cZTzQ1dlgNuw5taSdZ2e-750" value="&lt;font style=&quot;font-size: 25px;&quot;&gt;社会人员&lt;/font&gt;" style="text;strokeColor=none;align=center;fillColor=none;html=1;verticalAlign=middle;whiteSpace=wrap;rounded=0;fontFamily=得意黑;fontColor=#2f5b7c;fontSize=25;" vertex="1" parent="1">
          <mxGeometry x="-480" y="765" width="150" height="30" as="geometry" />
        </mxCell>
        <mxCell id="cZTzQ1dlgNuw5taSdZ2e-751" value="无职学习状态" style="rounded=1;whiteSpace=wrap;html=1;fontSize=17;fontColor=#2f5b7c;fontFamily=得意黑;" vertex="1" parent="1">
          <mxGeometry x="-370" y="816" width="190" height="30" as="geometry" />
        </mxCell>
        <mxCell id="cZTzQ1dlgNuw5taSdZ2e-753" value="缺少学习自控力" style="rounded=1;whiteSpace=wrap;html=1;fontSize=17;fontColor=#2f5b7c;fontFamily=得意黑;" vertex="1" parent="1">
          <mxGeometry x="-370" y="860" width="190" height="30" as="geometry" />
        </mxCell>
        <mxCell id="cZTzQ1dlgNuw5taSdZ2e-754" value="空余时间高效学习" style="rounded=1;whiteSpace=wrap;html=1;fontSize=17;fontColor=#2f5b7c;fontFamily=得意黑;" vertex="1" parent="1">
          <mxGeometry x="-370" y="900" width="190" height="30" as="geometry" />
        </mxCell>
        <mxCell id="cZTzQ1dlgNuw5taSdZ2e-756" value="获取学习动力" style="rounded=1;whiteSpace=wrap;html=1;fontSize=17;fontColor=#2f5b7c;fontFamily=得意黑;" vertex="1" parent="1">
          <mxGeometry x="-370" y="940" width="190" height="30" as="geometry" />
        </mxCell>
        <mxCell id="cZTzQ1dlgNuw5taSdZ2e-767" value="&lt;font style=&quot;font-size: 20px;&quot;&gt;&lt;b style=&quot;font-size: 20px;&quot;&gt;线上自习室&lt;/b&gt;&lt;/font&gt;" style="text;strokeColor=none;align=center;fillColor=none;html=1;verticalAlign=middle;whiteSpace=wrap;rounded=0;fontFamily=得意黑;fontSize=20;fontColor=#2F5B7C;fontStyle=0" vertex="1" parent="1">
          <mxGeometry x="-1270" y="410" width="100" height="31.4" as="geometry" />
        </mxCell>
        <mxCell id="cZTzQ1dlgNuw5taSdZ2e-769" value="" style="sketch=0;aspect=fixed;pointerEvents=1;shadow=0;dashed=0;html=1;strokeColor=none;labelPosition=center;verticalLabelPosition=bottom;verticalAlign=top;align=center;fillColor=#2F5B7C;shape=mxgraph.mscae.enterprise.internet;fontFamily=得意黑;fontSize=16;fontColor=#2F5B7C;" vertex="1" parent="1">
          <mxGeometry x="-1340" y="400" width="58.39" height="36.2" as="geometry" />
        </mxCell>
        <mxCell id="cZTzQ1dlgNuw5taSdZ2e-771" value="&lt;ul style=&quot;line-height: 150%; font-size: 17px;&quot;&gt;&lt;li&gt;便捷：在任何时间地点展开有效率的学习&lt;/li&gt;&lt;li&gt;灵活：自由规划个人需求和安排时间&lt;/li&gt;&lt;li&gt;高效：提高自学过程中学习的效率&lt;/li&gt;&lt;/ul&gt;" style="text;strokeColor=none;fillColor=none;html=1;whiteSpace=wrap;verticalAlign=middle;overflow=hidden;fontFamily=得意黑;fontSize=16;fontColor=#2F5B7C;" vertex="1" parent="1">
          <mxGeometry x="-1340.29" y="494.4" width="327" height="108.6" as="geometry" />
        </mxCell>
        <mxCell id="cZTzQ1dlgNuw5taSdZ2e-774" value="提供一个学习氛围浓厚的环境&lt;br&gt;&lt;span style=&quot;white-space: pre;&quot;&gt;	&lt;/span&gt;让用户在互相监督的良好氛围中高效学习" style="text;strokeColor=none;align=left;fillColor=none;html=1;verticalAlign=middle;whiteSpace=wrap;rounded=0;fontFamily=得意黑;fontSize=17;fontColor=#2F5B7C;" vertex="1" parent="1">
          <mxGeometry x="-1298.52" y="464.4" width="365" height="30" as="geometry" />
        </mxCell>
        <mxCell id="cZTzQ1dlgNuw5taSdZ2e-775" value="" style="shape=image;html=1;verticalAlign=top;verticalLabelPosition=bottom;labelBackgroundColor=#2F5B7C;imageAspect=0;aspect=fixed;image=https://cdn0.iconfinder.com/data/icons/education-1006/32/chair_modern_desk_furniture_seat_sit_room_contemporary_executive_side-128.png;fontFamily=得意黑;fontSize=17;fontColor=#2F5B7C;" vertex="1" parent="1">
          <mxGeometry x="-1350.3999999999999" y="606.5" width="71" height="71" as="geometry" />
        </mxCell>
        <mxCell id="cZTzQ1dlgNuw5taSdZ2e-777" value="&lt;font style=&quot;font-size: 20px;&quot;&gt;&lt;b style=&quot;font-size: 20px;&quot;&gt;线下自习室&lt;/b&gt;&lt;/font&gt;" style="text;strokeColor=none;align=center;fillColor=none;html=1;verticalAlign=middle;whiteSpace=wrap;rounded=0;fontFamily=得意黑;fontSize=20;fontColor=#2F5B7C;fontStyle=0" vertex="1" parent="1">
          <mxGeometry x="-1274.79" y="620.5" width="100" height="31.4" as="geometry" />
        </mxCell>
        <mxCell id="cZTzQ1dlgNuw5taSdZ2e-778" value="&lt;ul style=&quot;line-height: 150%;&quot;&gt;&lt;li&gt;便捷：在离家近、交通便利的地点进行学习&lt;br&gt;&lt;/li&gt;&lt;li&gt;优质：提供舒适、安静、高效的学习环境&lt;br&gt;&lt;/li&gt;&lt;li&gt;交流：能够相互交流和合作，提高学习效率&lt;br&gt;&lt;/li&gt;&lt;li&gt;无忧：提供预约服务，即约即用&lt;/li&gt;&lt;li&gt;个性化：自习室设施配备完备&lt;/li&gt;&lt;/ul&gt;" style="text;strokeColor=none;fillColor=none;html=1;whiteSpace=wrap;verticalAlign=middle;overflow=hidden;fontFamily=得意黑;fontSize=17;fontColor=#2F5B7C;" vertex="1" parent="1">
          <mxGeometry x="-1340" y="740" width="340" height="143" as="geometry" />
        </mxCell>
        <mxCell id="cZTzQ1dlgNuw5taSdZ2e-779" value="提供一个沉浸式学习环境&lt;br&gt;&lt;span style=&quot;white-space: pre;&quot;&gt;	&lt;/span&gt;同时可以满足收纳、研讨、防守等多种需求" style="text;strokeColor=none;align=left;fillColor=none;html=1;verticalAlign=middle;whiteSpace=wrap;rounded=0;fontFamily=得意黑;fontSize=17;fontColor=#2F5B7C;" vertex="1" parent="1">
          <mxGeometry x="-1304.5" y="700" width="320" height="30" as="geometry" />
        </mxCell>
        <mxCell id="cZTzQ1dlgNuw5taSdZ2e-781" value="&lt;font style=&quot;font-size: 20px;&quot;&gt;&lt;b style=&quot;font-size: 20px;&quot;&gt;线上学习社区&lt;/b&gt;&lt;/font&gt;" style="text;strokeColor=none;align=center;fillColor=none;html=1;verticalAlign=middle;whiteSpace=wrap;rounded=0;fontFamily=得意黑;fontSize=20;fontColor=#2F5B7C;fontStyle=0" vertex="1" parent="1">
          <mxGeometry x="-1272.1" y="929.3000000000001" width="100" height="31.4" as="geometry" />
        </mxCell>
        <mxCell id="cZTzQ1dlgNuw5taSdZ2e-782" value="&lt;blockquote style=&quot;margin: 0 0 0 40px; border: none; padding: 0px;&quot;&gt;提供学习交流平台用户可分享学习情况&lt;br&gt;交流学习经验帮助解决学习问题&lt;/blockquote&gt;" style="text;strokeColor=none;align=left;fillColor=none;html=1;verticalAlign=middle;whiteSpace=wrap;rounded=0;fontFamily=得意黑;fontSize=17;fontColor=#2F5B7C;" vertex="1" parent="1">
          <mxGeometry x="-1332.1" y="960.7" width="329" height="100" as="geometry" />
        </mxCell>
        <mxCell id="cZTzQ1dlgNuw5taSdZ2e-786" value="" style="sketch=0;pointerEvents=1;shadow=0;dashed=0;html=1;strokeColor=none;fillColor=#505050;labelPosition=center;verticalLabelPosition=bottom;verticalAlign=top;outlineConnect=0;align=center;shape=mxgraph.office.communications.chat_room;fontFamily=得意黑;fontSize=17;fontColor=#2F5B7C;" vertex="1" parent="1">
          <mxGeometry x="-1341.01" y="916" width="60.4" height="58" as="geometry" />
        </mxCell>
        <mxCell id="cZTzQ1dlgNuw5taSdZ2e-789" value="用户口碑：只有服务给用户留下深刻印象，才有可能让产品通过客户传播" style="text;strokeColor=none;align=left;fillColor=none;html=1;verticalAlign=middle;whiteSpace=wrap;rounded=0;fontFamily=得意黑;fontSize=17;fontColor=#2F5B7C;" vertex="1" parent="1">
          <mxGeometry x="-849" y="890" width="264.5" height="27" as="geometry" />
        </mxCell>
        <mxCell id="cZTzQ1dlgNuw5taSdZ2e-790" value="" style="sketch=0;html=1;aspect=fixed;strokeColor=none;shadow=0;align=center;verticalAlign=top;fillColor=#2F5B7C;shape=mxgraph.gcp2.social_media_time;fontFamily=得意黑;fontSize=17;fontColor=#2F5B7C;" vertex="1" parent="1">
          <mxGeometry x="-920.0000000000001" y="883" width="39.77" height="41" as="geometry" />
        </mxCell>
        <mxCell id="cZTzQ1dlgNuw5taSdZ2e-792" value="" style="sketch=0;pointerEvents=1;shadow=0;dashed=0;html=1;strokeColor=none;fillColor=#2F5B7C;labelPosition=center;verticalLabelPosition=bottom;verticalAlign=top;outlineConnect=0;align=center;shape=mxgraph.office.concepts.video_play;fontFamily=得意黑;fontSize=17;fontColor=#2F5B7C;" vertex="1" parent="1">
          <mxGeometry x="-918.8699999999999" y="944" width="38.64" height="30" as="geometry" />
        </mxCell>
        <mxCell id="cZTzQ1dlgNuw5taSdZ2e-793" value="大众媒介：通过高校自媒体、公众号、视频号进行服务推广宣传" style="text;strokeColor=none;align=left;fillColor=none;html=1;verticalAlign=middle;whiteSpace=wrap;rounded=0;fontFamily=得意黑;fontSize=17;fontColor=#2F5B7C;" vertex="1" parent="1">
          <mxGeometry x="-849" y="950" width="280" height="30" as="geometry" />
        </mxCell>
        <mxCell id="cZTzQ1dlgNuw5taSdZ2e-794" value="&lt;ul style=&quot;line-height: 140%;&quot;&gt;&lt;li&gt;服务渠道：小程序&lt;br&gt;&lt;/li&gt;&lt;li&gt;解决问题：线上线下服务中心&lt;/li&gt;&lt;li&gt;回访：微信/QQ回访&lt;/li&gt;&lt;/ul&gt;" style="text;strokeColor=none;fillColor=none;html=1;whiteSpace=wrap;verticalAlign=middle;overflow=hidden;fontFamily=得意黑;fontSize=17;fontColor=#2F5B7C;" vertex="1" parent="1">
          <mxGeometry x="-890" y="980" width="262.75" height="99.3" as="geometry" />
        </mxCell>
        <mxCell id="cZTzQ1dlgNuw5taSdZ2e-797" value="&lt;ul&gt;&lt;li&gt;自助服务型关系&lt;br&gt;&lt;/li&gt;&lt;li&gt;社区类客户关系&lt;br&gt;&lt;/li&gt;&lt;/ul&gt;" style="text;strokeColor=none;fillColor=none;html=1;whiteSpace=wrap;verticalAlign=middle;overflow=hidden;fontFamily=得意黑;fontSize=17;fontColor=#2F5B7C;" vertex="1" parent="1">
          <mxGeometry x="-920" y="413" width="175.5" height="80" as="geometry" />
        </mxCell>
        <mxCell id="cZTzQ1dlgNuw5taSdZ2e-798" value="会员制度关系" style="text;strokeColor=none;align=center;fillColor=none;html=1;verticalAlign=middle;whiteSpace=wrap;rounded=0;fontFamily=得意黑;fontSize=20;fontColor=#2F5B7C;" vertex="1" parent="1">
          <mxGeometry x="-830" y="488" width="119" height="30" as="geometry" />
        </mxCell>
        <mxCell id="cZTzQ1dlgNuw5taSdZ2e-801" value="&lt;ul&gt;&lt;li&gt;可提前一星期预约&lt;/li&gt;&lt;li&gt;长期申请座位&lt;/li&gt;&lt;li&gt;免费使用储物柜&lt;/li&gt;&lt;/ul&gt;" style="text;strokeColor=none;fillColor=none;html=1;whiteSpace=wrap;verticalAlign=middle;overflow=hidden;fontFamily=得意黑;fontSize=17;fontColor=#2F5B7C;" vertex="1" parent="1">
          <mxGeometry x="-834.5" y="508" width="225.77" height="95" as="geometry" />
        </mxCell>
        <mxCell id="cZTzQ1dlgNuw5taSdZ2e-802" value="" style="shape=image;html=1;verticalAlign=top;verticalLabelPosition=bottom;labelBackgroundColor=#ffffff;imageAspect=0;aspect=fixed;image=https://cdn2.iconfinder.com/data/icons/essential-web-3/50/flag-mark-important-outstanding-goal-128.png;fontFamily=得意黑;fontSize=17;fontColor=#2F5B7C;" vertex="1" parent="1">
          <mxGeometry x="-902.5" y="523" width="68" height="68" as="geometry" />
        </mxCell>
        <mxCell id="cZTzQ1dlgNuw5taSdZ2e-805" value="&lt;ol style=&quot;font-size: 30px; line-height: 150%;&quot;&gt;&lt;li&gt;会员制度收入&lt;/li&gt;&lt;li&gt;储物柜租赁收费&lt;/li&gt;&lt;li&gt;平台广告收入&lt;/li&gt;&lt;/ol&gt;" style="text;strokeColor=none;fillColor=none;html=1;whiteSpace=wrap;verticalAlign=middle;overflow=hidden;fontFamily=得意黑;fontSize=20;fontColor=#2F5B7C;" vertex="1" parent="1">
          <mxGeometry x="-650" y="1120" width="348" height="230" as="geometry" />
        </mxCell>
        <mxCell id="cZTzQ1dlgNuw5taSdZ2e-809" value="&lt;ul&gt;&lt;li&gt;一套完整的智能线下自习室预约管理系统&lt;br style=&quot;border-color: var(--border-color);&quot;&gt;&lt;/li&gt;&lt;li&gt;一个服务集成度很高的小程序&lt;/li&gt;&lt;li&gt;与部分高校的合作&lt;/li&gt;&lt;/ul&gt;" style="text;strokeColor=none;fillColor=none;html=1;whiteSpace=wrap;verticalAlign=middle;overflow=hidden;fontFamily=得意黑;fontSize=17;fontColor=#2f5b7c;" vertex="1" parent="1">
          <mxGeometry x="-1780" y="841" width="370" height="129" as="geometry" />
        </mxCell>
        <mxCell id="cZTzQ1dlgNuw5taSdZ2e-819" style="edgeStyle=orthogonalEdgeStyle;rounded=0;orthogonalLoop=1;jettySize=auto;html=1;entryX=0.5;entryY=1;entryDx=0;entryDy=0;fontFamily=得意黑;fontSize=17;fontColor=#2f5b7c;" edge="1" parent="1" source="cZTzQ1dlgNuw5taSdZ2e-811" target="cZTzQ1dlgNuw5taSdZ2e-814">
          <mxGeometry relative="1" as="geometry">
            <Array as="points">
              <mxPoint x="-1660" y="494" />
              <mxPoint x="-1595" y="494" />
            </Array>
          </mxGeometry>
        </mxCell>
        <mxCell id="cZTzQ1dlgNuw5taSdZ2e-811" value="线上自习室的运营和管理" style="text;strokeColor=none;align=left;fillColor=none;html=1;verticalAlign=middle;whiteSpace=wrap;rounded=0;fontFamily=得意黑;fontSize=17;fontColor=#2f5b7c;" vertex="1" parent="1">
          <mxGeometry x="-1740" y="533" width="260" height="30" as="geometry" />
        </mxCell>
        <mxCell id="cZTzQ1dlgNuw5taSdZ2e-818" style="edgeStyle=orthogonalEdgeStyle;rounded=0;orthogonalLoop=1;jettySize=auto;html=1;entryX=0.5;entryY=1;entryDx=0;entryDy=0;fontFamily=得意黑;fontSize=17;fontColor=#2f5b7c;" edge="1" parent="1" source="cZTzQ1dlgNuw5taSdZ2e-812" target="cZTzQ1dlgNuw5taSdZ2e-814">
          <mxGeometry relative="1" as="geometry" />
        </mxCell>
        <mxCell id="cZTzQ1dlgNuw5taSdZ2e-812" value="线下自习室的标准化以及管理规范化" style="text;strokeColor=none;align=left;fillColor=none;html=1;verticalAlign=middle;whiteSpace=wrap;rounded=0;fontFamily=得意黑;fontSize=17;fontColor=#2f5b7c;" vertex="1" parent="1">
          <mxGeometry x="-1630" y="576.5" width="260" height="30" as="geometry" />
        </mxCell>
        <mxCell id="cZTzQ1dlgNuw5taSdZ2e-814" value="提供一个良好的学习环境以及学习氛围" style="rounded=1;whiteSpace=wrap;html=1;fontFamily=得意黑;fontSize=17;fontColor=#2f5b7c;" vertex="1" parent="1">
          <mxGeometry x="-1720" y="395.7" width="250" height="60" as="geometry" />
        </mxCell>
        <mxCell id="cZTzQ1dlgNuw5taSdZ2e-817" style="edgeStyle=orthogonalEdgeStyle;rounded=0;orthogonalLoop=1;jettySize=auto;html=1;exitX=0.5;exitY=1;exitDx=0;exitDy=0;fontFamily=得意黑;fontSize=17;fontColor=#2f5b7c;" edge="1" parent="1" source="cZTzQ1dlgNuw5taSdZ2e-812" target="cZTzQ1dlgNuw5taSdZ2e-812">
          <mxGeometry relative="1" as="geometry" />
        </mxCell>
        <mxCell id="cZTzQ1dlgNuw5taSdZ2e-828" style="edgeStyle=orthogonalEdgeStyle;rounded=0;orthogonalLoop=1;jettySize=auto;html=1;exitX=0.5;exitY=1;exitDx=0;exitDy=0;fontFamily=得意黑;fontSize=17;fontColor=#2f5b7c;" edge="1" parent="1" source="701" target="701">
          <mxGeometry relative="1" as="geometry" />
        </mxCell>
        <mxCell id="cZTzQ1dlgNuw5taSdZ2e-829" value="" style="shape=image;html=1;verticalAlign=top;verticalLabelPosition=bottom;labelBackgroundColor=#ffffff;imageAspect=0;aspect=fixed;image=https://cdn1.iconfinder.com/data/icons/office-171/32/office-09-128.png;fontFamily=得意黑;fontSize=17;fontColor=#2f5b7c;" vertex="1" parent="1">
          <mxGeometry x="-2184.8" y="508" width="78.5" height="78.5" as="geometry" />
        </mxCell>
        <mxCell id="cZTzQ1dlgNuw5taSdZ2e-830" value="&lt;font style=&quot;font-size: 29px;&quot;&gt;·&lt;/font&gt;&lt;font style=&quot;font-size: 22px;&quot;&gt;管理设备生产企业&lt;/font&gt;" style="text;strokeColor=none;align=center;fillColor=none;html=1;verticalAlign=middle;whiteSpace=wrap;rounded=0;fontFamily=得意黑;fontSize=17;fontColor=#2f5b7c;" vertex="1" parent="1">
          <mxGeometry x="-2094.8" y="519.5" width="160" height="55" as="geometry" />
        </mxCell>
        <mxCell id="cZTzQ1dlgNuw5taSdZ2e-831" value="" style="shape=image;html=1;verticalAlign=top;verticalLabelPosition=bottom;labelBackgroundColor=#ffffff;imageAspect=0;aspect=fixed;image=https://cdn1.iconfinder.com/data/icons/software-engineering-and-video-gaming/512/494_engineering_project_tools_workshop_processing_Data_Science_Fabrication_Lab-128.png;fontFamily=得意黑;fontSize=29;fontColor=#2f5b7c;" vertex="1" parent="1">
          <mxGeometry x="-2180.55" y="620.5" width="70" height="70" as="geometry" />
        </mxCell>
        <mxCell id="cZTzQ1dlgNuw5taSdZ2e-832" value="&lt;font style=&quot;font-size: 29px;&quot;&gt;·&lt;/font&gt;&lt;font style=&quot;font-size: 22px;&quot;&gt;平台系统开发企业&lt;/font&gt;" style="text;strokeColor=none;align=center;fillColor=none;html=1;verticalAlign=middle;whiteSpace=wrap;rounded=0;fontFamily=得意黑;fontSize=17;fontColor=#2f5b7c;" vertex="1" parent="1">
          <mxGeometry x="-2094.8" y="630.5" width="160" height="55" as="geometry" />
        </mxCell>
        <mxCell id="cZTzQ1dlgNuw5taSdZ2e-833" value="" style="shape=image;html=1;verticalAlign=top;verticalLabelPosition=bottom;labelBackgroundColor=#ffffff;imageAspect=0;aspect=fixed;image=https://cdn0.iconfinder.com/data/icons/competitive-strategy-and-corporate-training/512/169_presentation_project_graph_business-128.png;fontFamily=得意黑;fontSize=29;fontColor=#2f5b7c;" vertex="1" parent="1">
          <mxGeometry x="-2180.55" y="740" width="68.1" height="68.1" as="geometry" />
        </mxCell>
        <mxCell id="cZTzQ1dlgNuw5taSdZ2e-834" value="&lt;font style=&quot;font-size: 29px;&quot;&gt;·&lt;/font&gt;&lt;font style=&quot;font-size: 22px;&quot;&gt;各高校管理部&lt;/font&gt;" style="text;strokeColor=none;align=center;fillColor=none;html=1;verticalAlign=middle;whiteSpace=wrap;rounded=0;fontFamily=得意黑;fontSize=17;fontColor=#2f5b7c;" vertex="1" parent="1">
          <mxGeometry x="-2112.45" y="740" width="160" height="55" as="geometry" />
        </mxCell>
        <mxCell id="cZTzQ1dlgNuw5taSdZ2e-836" value="场地租赁费用" style="rounded=1;whiteSpace=wrap;html=1;fontFamily=得意黑;fontSize=29;fontColor=#2f5b7c;" vertex="1" parent="1">
          <mxGeometry x="-2150" y="1330" width="170" height="50" as="geometry" />
        </mxCell>
        <mxCell id="cZTzQ1dlgNuw5taSdZ2e-837" value="系统维护管理费用" style="rounded=1;whiteSpace=wrap;html=1;fontFamily=得意黑;fontSize=29;fontColor=#2f5b7c;" vertex="1" parent="1">
          <mxGeometry x="-1920" y="1330" width="220" height="50" as="geometry" />
        </mxCell>
        <mxCell id="cZTzQ1dlgNuw5taSdZ2e-838" value="宣传费用" style="rounded=1;whiteSpace=wrap;html=1;fontFamily=得意黑;fontSize=29;fontColor=#2f5b7c;" vertex="1" parent="1">
          <mxGeometry x="-1640" y="1330" width="170" height="50" as="geometry" />
        </mxCell>
        <mxCell id="cZTzQ1dlgNuw5taSdZ2e-839" value="人工费用" style="rounded=1;whiteSpace=wrap;html=1;fontFamily=得意黑;fontSize=29;fontColor=#2f5b7c;" vertex="1" parent="1">
          <mxGeometry x="-1430" y="1330" width="170" height="50" as="geometry" />
        </mxCell>
        <mxCell id="cZTzQ1dlgNuw5taSdZ2e-842" style="edgeStyle=orthogonalEdgeStyle;rounded=0;orthogonalLoop=1;jettySize=auto;html=1;entryX=0.5;entryY=0;entryDx=0;entryDy=0;fontFamily=得意黑;fontSize=16;fontColor=#2f5b7c;" edge="1" parent="1" source="cZTzQ1dlgNuw5taSdZ2e-840" target="cZTzQ1dlgNuw5taSdZ2e-836">
          <mxGeometry relative="1" as="geometry">
            <Array as="points">
              <mxPoint x="-1706" y="1300" />
              <mxPoint x="-2065" y="1300" />
            </Array>
          </mxGeometry>
        </mxCell>
        <mxCell id="cZTzQ1dlgNuw5taSdZ2e-843" style="edgeStyle=orthogonalEdgeStyle;rounded=0;orthogonalLoop=1;jettySize=auto;html=1;entryX=0.5;entryY=0;entryDx=0;entryDy=0;fontFamily=得意黑;fontSize=16;fontColor=#2f5b7c;" edge="1" parent="1" source="cZTzQ1dlgNuw5taSdZ2e-840" target="cZTzQ1dlgNuw5taSdZ2e-837">
          <mxGeometry relative="1" as="geometry">
            <Array as="points">
              <mxPoint x="-1706" y="1300" />
              <mxPoint x="-1810" y="1300" />
            </Array>
          </mxGeometry>
        </mxCell>
        <mxCell id="cZTzQ1dlgNuw5taSdZ2e-844" style="edgeStyle=orthogonalEdgeStyle;rounded=0;orthogonalLoop=1;jettySize=auto;html=1;entryX=0.5;entryY=0;entryDx=0;entryDy=0;fontFamily=得意黑;fontSize=16;fontColor=#2f5b7c;" edge="1" parent="1" source="cZTzQ1dlgNuw5taSdZ2e-840" target="cZTzQ1dlgNuw5taSdZ2e-838">
          <mxGeometry relative="1" as="geometry">
            <Array as="points">
              <mxPoint x="-1706" y="1300" />
              <mxPoint x="-1555" y="1300" />
            </Array>
          </mxGeometry>
        </mxCell>
        <mxCell id="cZTzQ1dlgNuw5taSdZ2e-845" style="edgeStyle=orthogonalEdgeStyle;rounded=0;orthogonalLoop=1;jettySize=auto;html=1;entryX=0.5;entryY=0;entryDx=0;entryDy=0;fontFamily=得意黑;fontSize=16;fontColor=#2f5b7c;" edge="1" parent="1" source="cZTzQ1dlgNuw5taSdZ2e-840" target="cZTzQ1dlgNuw5taSdZ2e-839">
          <mxGeometry relative="1" as="geometry">
            <Array as="points">
              <mxPoint x="-1706" y="1300" />
              <mxPoint x="-1345" y="1300" />
            </Array>
          </mxGeometry>
        </mxCell>
        <mxCell id="cZTzQ1dlgNuw5taSdZ2e-840" value="" style="shape=image;html=1;verticalAlign=top;verticalLabelPosition=bottom;labelBackgroundColor=#ffffff;imageAspect=0;aspect=fixed;image=https://cdn4.iconfinder.com/data/icons/aiga-symbol-signs/441/aiga_cashier-128.png;fontFamily=得意黑;fontSize=16;fontColor=#2f5b7c;" vertex="1" parent="1">
          <mxGeometry x="-1740" y="1206.5" width="68" height="68" as="geometry" />
        </mxCell>
        <mxCell id="cZTzQ1dlgNuw5taSdZ2e-846" value="" style="dashed=0;aspect=fixed;verticalLabelPosition=bottom;verticalAlign=top;align=center;shape=mxgraph.gmdl.star;strokeColor=none;fillColor=#737373;shadow=0;sketch=0;fontFamily=得意黑;fontSize=16;fontColor=#2f5b7c;" vertex="1" parent="1">
          <mxGeometry x="-2080" y="1380" width="30" height="30" as="geometry" />
        </mxCell>
        <mxCell id="cZTzQ1dlgNuw5taSdZ2e-848" value="" style="dashed=0;aspect=fixed;verticalLabelPosition=bottom;verticalAlign=top;align=center;shape=mxgraph.gmdl.star;strokeColor=none;fillColor=#737373;shadow=0;sketch=0;fontFamily=得意黑;fontSize=16;fontColor=#2f5b7c;" vertex="1" parent="1">
          <mxGeometry x="-2047.45" y="1380" width="30" height="30" as="geometry" />
        </mxCell>
        <mxCell id="cZTzQ1dlgNuw5taSdZ2e-849" value="" style="dashed=0;aspect=fixed;verticalLabelPosition=bottom;verticalAlign=top;align=center;shape=mxgraph.gmdl.star;strokeColor=none;fillColor=#737373;shadow=0;sketch=0;fontFamily=得意黑;fontSize=16;fontColor=#2f5b7c;" vertex="1" parent="1">
          <mxGeometry x="-2110.55" y="1380" width="30" height="30" as="geometry" />
        </mxCell>
        <mxCell id="cZTzQ1dlgNuw5taSdZ2e-850" value="" style="dashed=0;aspect=fixed;verticalLabelPosition=bottom;verticalAlign=top;align=center;shape=mxgraph.gmdl.star;strokeColor=none;fillColor=#737373;shadow=0;sketch=0;fontFamily=得意黑;fontSize=16;fontColor=#2f5b7c;" vertex="1" parent="1">
          <mxGeometry x="-1825" y="1380" width="30" height="30" as="geometry" />
        </mxCell>
        <mxCell id="cZTzQ1dlgNuw5taSdZ2e-851" value="" style="dashed=0;aspect=fixed;verticalLabelPosition=bottom;verticalAlign=top;align=center;shape=mxgraph.gmdl.star;strokeColor=none;fillColor=#737373;shadow=0;sketch=0;fontFamily=得意黑;fontSize=16;fontColor=#2f5b7c;" vertex="1" parent="1">
          <mxGeometry x="-1570" y="1380" width="30" height="30" as="geometry" />
        </mxCell>
        <mxCell id="cZTzQ1dlgNuw5taSdZ2e-852" value="" style="dashed=0;aspect=fixed;verticalLabelPosition=bottom;verticalAlign=top;align=center;shape=mxgraph.gmdl.star;strokeColor=none;fillColor=#737373;shadow=0;sketch=0;fontFamily=得意黑;fontSize=16;fontColor=#2f5b7c;" vertex="1" parent="1">
          <mxGeometry x="-1380.4" y="1380" width="30" height="30" as="geometry" />
        </mxCell>
        <mxCell id="cZTzQ1dlgNuw5taSdZ2e-853" value="" style="dashed=0;aspect=fixed;verticalLabelPosition=bottom;verticalAlign=top;align=center;shape=mxgraph.gmdl.star;strokeColor=none;fillColor=#737373;shadow=0;sketch=0;fontFamily=得意黑;fontSize=16;fontColor=#2f5b7c;" vertex="1" parent="1">
          <mxGeometry x="-1329.9" y="1380" width="30" height="30" as="geometry" />
        </mxCell>
        <mxCell id="cZTzQ1dlgNuw5taSdZ2e-854" value="&lt;font style=&quot;font-size: 25px;&quot;&gt;制作：林雪峰&lt;/font&gt;" style="text;strokeColor=none;align=center;fillColor=none;html=1;verticalAlign=middle;whiteSpace=wrap;rounded=0;fontFamily=得意黑;fontSize=17;fontColor=#2f5b7c;" vertex="1" parent="1">
          <mxGeometry x="-497.15999999999997" y="160" width="300" height="30" as="geometry" />
        </mxCell>
      </root>
    </mxGraphModel>
  </diagram>
</mxfile>
